<svg width="28" height="28" viewBox="0 0 28 28" fill="none" xmlns="http://www.w3.org/2000/svg">
<path d="M20.895 5.83339H6.89501L8.41168 4.32839C8.63136 4.1087 8.75478 3.81074 8.75478 3.50005C8.75478 3.18937 8.63136 2.89141 8.41168 2.67172C8.19199 2.45203 7.89403 2.32861 7.58334 2.32861C7.27266 2.32861 6.9747 2.45203 6.75501 2.67172L3.25501 6.17172C3.14566 6.28018 3.05887 6.40921 2.99964 6.55138C2.94041 6.69355 2.90991 6.84604 2.90991 7.00005C2.90991 7.15407 2.94041 7.30656 2.99964 7.44873C3.05887 7.5909 3.14566 7.71993 3.25501 7.82839L6.75501 11.3284C6.86347 11.4377 6.9925 11.5245 7.13467 11.5838C7.27684 11.643 7.42933 11.6735 7.58334 11.6735C7.73736 11.6735 7.88985 11.643 8.03202 11.5838C8.17419 11.5245 8.30322 11.4377 8.41168 11.3284C8.52103 11.2199 8.60782 11.0909 8.66705 10.9487C8.72628 10.8066 8.75677 10.6541 8.75677 10.5001C8.75677 10.346 8.72628 10.1936 8.66705 10.0514C8.60782 9.90921 8.52103 9.78018 8.41168 9.67172L6.89501 8.16672H20.895C21.134 8.16208 21.3716 8.20457 21.5942 8.29177C21.8168 8.37898 22.02 8.50918 22.1923 8.67494C22.3646 8.8407 22.5025 9.03877 22.5982 9.25785C22.6939 9.47692 22.7455 9.7127 22.75 9.95172V12.8334C22.75 13.1428 22.8729 13.4396 23.0917 13.6583C23.3105 13.8771 23.6073 14.0001 23.9167 14.0001C24.2261 14.0001 24.5228 13.8771 24.7416 13.6583C24.9604 13.4396 25.0833 13.1428 25.0833 12.8334V9.95172C25.0788 9.40629 24.9668 8.86711 24.7538 8.36495C24.5409 7.86279 24.2311 7.4075 23.8422 7.02508C23.4532 6.64265 22.9928 6.34058 22.4871 6.13611C21.9814 5.93164 21.4404 5.82877 20.895 5.83339Z" fill="#1A1A1A"/>
<path d="M21.245 16.6717C21.0253 16.452 20.7274 16.3286 20.4167 16.3286C20.106 16.3286 19.808 16.452 19.5884 16.6717C19.3687 16.8914 19.2452 17.1893 19.2452 17.5C19.2452 17.8107 19.3687 18.1086 19.5884 18.3283L21.105 19.8333H7.10502C6.866 19.838 6.62841 19.7955 6.40582 19.7083C6.18323 19.6211 5.98 19.4909 5.80774 19.3251C5.63548 19.1594 5.49756 18.9613 5.40186 18.7422C5.30617 18.5231 5.25457 18.2874 5.25002 18.0483V15.1667C5.25002 14.8572 5.1271 14.5605 4.90831 14.3417C4.68952 14.1229 4.39277 14 4.08335 14C3.77393 14 3.47719 14.1229 3.2584 14.3417C3.0396 14.5605 2.91669 14.8572 2.91669 15.1667V18.0483C2.92126 18.5938 3.03323 19.1329 3.2462 19.6351C3.45916 20.1373 3.76895 20.5925 4.15788 20.975C4.5468 21.3574 5.00725 21.6595 5.51292 21.8639C6.0186 22.0684 6.55959 22.1713 7.10502 22.1667H21.105L19.5884 23.6717C19.479 23.7801 19.3922 23.9092 19.333 24.0513C19.2737 24.1935 19.2433 24.346 19.2433 24.5C19.2433 24.654 19.2737 24.8065 19.333 24.9487C19.3922 25.0908 19.479 25.2199 19.5884 25.3283C19.6968 25.4377 19.8258 25.5245 19.968 25.5837C20.1102 25.6429 20.2627 25.6734 20.4167 25.6734C20.5707 25.6734 20.7232 25.6429 20.8654 25.5837C21.0075 25.5245 21.1366 25.4377 21.245 25.3283L24.745 21.8283C24.8544 21.7199 24.9412 21.5908 25.0004 21.4487C25.0596 21.3065 25.0901 21.154 25.0901 21C25.0901 20.846 25.0596 20.6935 25.0004 20.5513C24.9412 20.4092 24.8544 20.2801 24.745 20.1717L21.245 16.6717Z" fill="#1A1A1A"/>
</svg>
