<svg width="30" height="30" viewBox="0 0 30 30" fill="none" xmlns="http://www.w3.org/2000/svg">
<path d="M6.875 22.5C6.58137 22.4971 6.29815 22.3909 6.075 22.2C4.79256 21.1908 3.75046 19.9091 3.02409 18.4477C2.29772 16.9863 1.90522 15.3817 1.875 13.75C1.90522 12.1183 2.29772 10.5138 3.02409 9.05239C3.75046 7.59099 4.79256 6.30931 6.075 5.30003C6.19599 5.1721 6.34265 5.07117 6.50536 5.00386C6.66808 4.93655 6.84318 4.90438 7.01919 4.90945C7.1952 4.91453 7.36816 4.95673 7.52672 5.0333C7.68529 5.10987 7.82589 5.21908 7.93931 5.35377C8.05274 5.48846 8.13642 5.64559 8.18489 5.81487C8.23336 5.98416 8.24551 6.16177 8.22056 6.33608C8.1956 6.51039 8.1341 6.67746 8.04009 6.82635C7.94607 6.97523 7.82166 7.10257 7.675 7.20003C6.67739 7.98221 5.86447 8.97467 5.29409 10.1068C4.72371 11.2389 4.4099 12.4828 4.375 13.75C4.4099 15.0172 4.72371 16.2612 5.29409 17.3933C5.86447 18.5254 6.67739 19.5179 7.675 20.3C7.92695 20.5116 8.08531 20.814 8.11573 21.1417C8.14615 21.4693 8.04618 21.7957 7.8375 22.05C7.71997 22.1911 7.5728 22.3046 7.40644 22.3824C7.24009 22.4602 7.05864 22.5003 6.875 22.5V22.5Z" fill="#1A1A1A"/>
<path d="M15 8.75C15.4223 8.75648 15.8422 8.81526 16.25 8.925V3.75C16.25 3.41848 16.1183 3.10054 15.8839 2.86612C15.6495 2.6317 15.3315 2.5 15 2.5C14.6685 2.5 14.3505 2.6317 14.1161 2.86612C13.8817 3.10054 13.75 3.41848 13.75 3.75V8.925C14.1578 8.81526 14.5777 8.75648 15 8.75Z" fill="#1A1A1A"/>
<path d="M15 18.75C14.5777 18.7435 14.1578 18.6847 13.75 18.575V25C13.75 25.3315 13.8817 25.6494 14.1161 25.8838C14.3505 26.1183 14.6685 26.25 15 26.25C15.3315 26.25 15.6495 26.1183 15.8839 25.8838C16.1183 25.6494 16.25 25.3315 16.25 25V18.575C15.8422 18.6847 15.4223 18.7435 15 18.75Z" fill="#1A1A1A"/>
<path d="M20 20C19.8164 20.0003 19.6349 19.9602 19.4686 19.8824C19.3022 19.8046 19.155 19.6911 19.0375 19.55C18.8288 19.2957 18.7289 18.9693 18.7593 18.6417C18.7897 18.314 18.9481 18.0116 19.2 17.8C19.8177 17.3165 20.3216 16.7031 20.6758 16.0032C21.0301 15.3033 21.2261 14.5341 21.25 13.75C21.2261 12.966 21.0301 12.1967 20.6758 11.4968C20.3216 10.7969 19.8177 10.1835 19.2 9.70003C19.0534 9.60257 18.929 9.47523 18.8349 9.32635C18.7409 9.17746 18.6794 9.01039 18.6545 8.83608C18.6295 8.66177 18.6417 8.48416 18.6901 8.31487C18.7386 8.14559 18.8223 7.98846 18.9357 7.85377C19.0491 7.71908 19.1897 7.60987 19.3483 7.5333C19.5069 7.45673 19.6798 7.41453 19.8558 7.40945C20.0318 7.40438 20.2069 7.43655 20.3697 7.50386C20.5324 7.57117 20.679 7.6721 20.8 7.80003C21.7019 8.51123 22.4345 9.414 22.9446 10.443C23.4548 11.4721 23.7299 12.6016 23.75 13.75C23.7299 14.8984 23.4548 16.028 22.9446 17.057C22.4345 18.0861 21.7019 18.9888 20.8 19.7C20.5769 19.8909 20.2936 19.9971 20 20V20Z" fill="#1A1A1A"/>
<path d="M10 20C9.70637 19.9971 9.42315 19.8909 9.2 19.7C8.29811 18.9888 7.56557 18.0861 7.05537 17.057C6.54518 16.028 6.27009 14.8984 6.25 13.75C6.27009 12.6016 6.54518 11.4721 7.05537 10.443C7.56557 9.414 8.29811 8.51123 9.2 7.80003C9.32099 7.6721 9.46765 7.57117 9.63036 7.50386C9.79308 7.43655 9.96818 7.40438 10.1442 7.40945C10.3202 7.41453 10.4932 7.45673 10.6517 7.5333C10.8103 7.60987 10.9509 7.71908 11.0643 7.85377C11.1777 7.98846 11.2614 8.14559 11.3099 8.31487C11.3584 8.48416 11.3705 8.66177 11.3456 8.83608C11.3206 9.01039 11.2591 9.17746 11.1651 9.32635C11.0711 9.47523 10.9467 9.60257 10.8 9.70003C10.1823 10.1835 9.67844 10.7969 9.32418 11.4968C8.96991 12.1967 8.77389 12.966 8.75 13.75C8.77389 14.5341 8.96991 15.3033 9.32418 16.0032C9.67844 16.7031 10.1823 17.3165 10.8 17.8C11.0519 18.0116 11.2103 18.314 11.2407 18.6417C11.2712 18.9693 11.1712 19.2957 10.9625 19.55C10.845 19.6911 10.6978 19.8046 10.5314 19.8824C10.3651 19.9602 10.1836 20.0003 10 20V20Z" fill="#1A1A1A"/>
<path d="M23.125 22.5C22.9414 22.5003 22.7599 22.4602 22.5936 22.3824C22.4272 22.3046 22.28 22.1911 22.1625 22.05C21.9538 21.7957 21.8539 21.4693 21.8843 21.1417C21.9147 20.814 22.0731 20.5116 22.325 20.3C23.3226 19.5179 24.1355 18.5254 24.7059 17.3933C25.2763 16.2612 25.5901 15.0172 25.625 13.75C25.5901 12.4828 25.2763 11.2389 24.7059 10.1068C24.1355 8.97467 23.3226 7.98221 22.325 7.20003C22.1784 7.10257 22.0539 6.97523 21.9599 6.82635C21.8659 6.67746 21.8044 6.51039 21.7795 6.33608C21.7545 6.16177 21.7667 5.98416 21.8151 5.81487C21.8636 5.64559 21.9473 5.48846 22.0607 5.35377C22.1741 5.21908 22.3147 5.10987 22.4733 5.0333C22.6319 4.95673 22.8048 4.91453 22.9808 4.90945C23.1568 4.90438 23.3319 4.93655 23.4947 5.00386C23.6574 5.07117 23.804 5.1721 23.925 5.30003C25.2075 6.30931 26.2496 7.59099 26.9759 9.05239C27.7023 10.5138 28.0948 12.1183 28.125 13.75C28.0948 15.3817 27.7023 16.9863 26.9759 18.4477C26.2496 19.9091 25.2075 21.1908 23.925 22.2C23.7019 22.3909 23.4186 22.4971 23.125 22.5V22.5Z" fill="#1A1A1A"/>
<path d="M15 15C14.7528 15 14.5111 14.9267 14.3055 14.7893C14.1 14.652 13.9398 14.4568 13.8452 14.2284C13.7505 13.9999 13.7258 13.7486 13.774 13.5061C13.8223 13.2637 13.9413 13.0409 14.1161 12.8661C14.2909 12.6913 14.5137 12.5723 14.7561 12.524C14.9986 12.4758 15.2499 12.5005 15.4784 12.5952C15.7068 12.6898 15.902 12.85 16.0393 13.0555C16.1767 13.2611 16.25 13.5028 16.25 13.75C16.25 14.0815 16.1183 14.3995 15.8839 14.6339C15.6495 14.8683 15.3315 15 15 15Z" fill="#1A1A1A"/>
</svg>
