<svg width="28" height="28" viewBox="0 0 28 28" fill="none" xmlns="http://www.w3.org/2000/svg">
<path d="M10.5 3.5H5.83333C5.21449 3.5 4.621 3.74583 4.18342 4.18342C3.74583 4.621 3.5 5.21449 3.5 5.83333V10.5C3.5 11.1188 3.74583 11.7123 4.18342 12.1499C4.621 12.5875 5.21449 12.8333 5.83333 12.8333H10.5C11.1188 12.8333 11.7123 12.5875 12.1499 12.1499C12.5875 11.7123 12.8333 11.1188 12.8333 10.5V5.83333C12.8333 5.21449 12.5875 4.621 12.1499 4.18342C11.7123 3.74583 11.1188 3.5 10.5 3.5ZM5.83333 10.5V5.83333H10.5V10.5H5.83333Z" fill="#1A1A1A"/>
<path d="M22.1666 3.5H17.5C16.8811 3.5 16.2876 3.74583 15.85 4.18342C15.4125 4.621 15.1666 5.21449 15.1666 5.83333V10.5C15.1666 11.1188 15.4125 11.7123 15.85 12.1499C16.2876 12.5875 16.8811 12.8333 17.5 12.8333H22.1666C22.7855 12.8333 23.379 12.5875 23.8165 12.1499C24.2541 11.7123 24.5 11.1188 24.5 10.5V5.83333C24.5 5.21449 24.2541 4.621 23.8165 4.18342C23.379 3.74583 22.7855 3.5 22.1666 3.5ZM17.5 10.5V5.83333H22.1666V10.5H17.5Z" fill="#1A1A1A"/>
<path d="M10.5 15.1666H5.83333C5.21449 15.1666 4.621 15.4125 4.18342 15.85C3.74583 16.2876 3.5 16.8811 3.5 17.5V22.1666C3.5 22.7855 3.74583 23.379 4.18342 23.8165C4.621 24.2541 5.21449 24.5 5.83333 24.5H10.5C11.1188 24.5 11.7123 24.2541 12.1499 23.8165C12.5875 23.379 12.8333 22.7855 12.8333 22.1666V17.5C12.8333 16.8811 12.5875 16.2876 12.1499 15.85C11.7123 15.4125 11.1188 15.1666 10.5 15.1666ZM5.83333 22.1666V17.5H10.5V22.1666H5.83333Z" fill="#1A1A1A"/>
<path d="M22.1666 15.1666H17.5C16.8811 15.1666 16.2876 15.4125 15.85 15.85C15.4125 16.2876 15.1666 16.8811 15.1666 17.5V22.1666C15.1666 22.7855 15.4125 23.379 15.85 23.8165C16.2876 24.2541 16.8811 24.5 17.5 24.5H22.1666C22.7855 24.5 23.379 24.2541 23.8165 23.8165C24.2541 23.379 24.5 22.7855 24.5 22.1666V17.5C24.5 16.8811 24.2541 16.2876 23.8165 15.85C23.379 15.4125 22.7855 15.1666 22.1666 15.1666ZM17.5 22.1666V17.5H22.1666V22.1666H17.5Z" fill="#1A1A1A"/>
</svg>
