<svg width="24" height="24" viewBox="0 0 24 24" fill="none" xmlns="http://www.w3.org/2000/svg">
<path d="M16.62 6.21C16.5165 6.12804 16.3977 6.0674 16.2707 6.03156C16.1436 5.99573 16.0107 5.98542 15.8796 6.00122C15.7485 6.01703 15.6218 6.05864 15.5069 6.12365C15.392 6.18866 15.2911 6.27579 15.21 6.38L8.20999 15.38L4.77999 11.2C4.69954 11.0929 4.59839 11.0031 4.48255 10.9358C4.3667 10.8686 4.23853 10.8253 4.10563 10.8085C3.97273 10.7917 3.83782 10.8018 3.70891 10.8382C3.57999 10.8746 3.4597 10.9365 3.35516 11.0203C3.25063 11.104 3.16399 11.2079 3.10039 11.3258C3.03679 11.4437 2.99752 11.5732 2.98491 11.7065C2.9723 11.8399 2.98661 11.9744 3.027 12.1021C3.06738 12.2298 3.13301 12.3481 3.21999 12.45L7.38999 17.63C7.48411 17.746 7.60303 17.8395 7.73801 17.9035C7.87299 17.9675 8.0206 18.0005 8.16999 18C8.32857 18.0071 8.48656 17.9763 8.63088 17.9102C8.77521 17.8442 8.90174 17.7447 8.99999 17.62L16.83 7.62C16.9098 7.51403 16.9678 7.39323 17.0004 7.26464C17.0331 7.13605 17.0399 7.00224 17.0203 6.87101C17.0008 6.73978 16.9553 6.61376 16.8866 6.50027C16.8179 6.38679 16.7272 6.28811 16.62 6.21Z" fill="#319DA0"/>
<path d="M21.6201 6.21C21.5166 6.12804 21.3978 6.0674 21.2708 6.03156C21.1437 5.99573 21.0108 5.98542 20.8797 6.00122C20.7486 6.01703 20.6219 6.05864 20.507 6.12365C20.3921 6.18866 20.2912 6.27579 20.2101 6.38L13.2101 15.38L12.6001 14.63L11.3401 16.25L12.4401 17.62C12.5342 17.736 12.6531 17.8295 12.7881 17.8935C12.9231 17.9575 13.0707 17.9905 13.2201 17.99C13.3703 17.9893 13.5184 17.9548 13.6534 17.889C13.7885 17.8232 13.907 17.7279 14.0001 17.61L21.8301 7.61C21.9084 7.50434 21.965 7.38427 21.9968 7.25668C22.0286 7.1291 22.035 6.99649 22.0155 6.86645C21.996 6.73641 21.951 6.61149 21.8831 6.49885C21.8153 6.38621 21.7259 6.28805 21.6201 6.21Z" fill="#319DA0"/>
<path d="M8.71006 13.06L10.0001 11.44L9.80006 11.2C9.72111 11.0906 9.62085 10.9983 9.50531 10.9287C9.38976 10.8591 9.26133 10.8136 9.12773 10.7949C8.99414 10.7762 8.85815 10.7848 8.72794 10.82C8.59773 10.8552 8.47599 10.9165 8.37006 11C8.26734 11.0825 8.18193 11.1845 8.11876 11.3002C8.05559 11.4158 8.01589 11.5428 8.00195 11.6738C7.98801 11.8048 8.0001 11.9373 8.03754 12.0637C8.07497 12.19 8.137 12.3077 8.22006 12.41L8.71006 13.06Z" fill="#319DA0"/>
</svg>
