<svg width="28" height="28" viewBox="0 0 28 28" fill="none" xmlns="http://www.w3.org/2000/svg">
<path d="M10.0449 25.6667C9.47561 25.6633 8.92283 25.475 8.46992 25.13L6.05492 23.3333C5.49761 22.8988 5.12783 22.2674 5.02152 21.5688C4.9152 20.8701 5.08043 20.1573 5.48325 19.5767C5.69639 19.262 5.83184 18.9012 5.87849 18.524C5.92513 18.1467 5.88164 17.7638 5.75159 17.4067L5.68159 17.22C5.59103 16.8967 5.42551 16.5994 5.19848 16.3521C4.97144 16.1048 4.68929 15.9145 4.37492 15.7967H4.18825C3.50677 15.5675 2.9432 15.0788 2.61991 14.4366C2.29663 13.7944 2.23973 13.0506 2.46159 12.3667L3.41825 9.33334C3.50632 8.98189 3.66845 8.65332 3.8938 8.36962C4.11915 8.08592 4.40252 7.85364 4.72492 7.68834C5.02516 7.53364 5.35367 7.44147 5.69057 7.4174C6.02746 7.39334 6.36574 7.43788 6.68492 7.54834C7.03245 7.6653 7.40329 7.69561 7.7652 7.63665C8.12711 7.57769 8.46915 7.43123 8.76159 7.21L8.91325 7.09334C9.17796 6.88212 9.3919 6.61419 9.5393 6.30929C9.6867 6.0044 9.7638 5.67032 9.76492 5.33167V5.05167C9.76178 4.33782 10.0408 3.65164 10.5412 3.14252C11.0415 2.63339 11.7228 2.34256 12.4366 2.33334H15.4116C15.7589 2.33427 16.1026 2.40381 16.4229 2.53795C16.7432 2.67209 17.0339 2.8682 17.2783 3.115C17.7919 3.63743 18.0773 4.34236 18.0716 5.075V5.40167C18.0657 5.72338 18.1354 6.04198 18.2753 6.33177C18.4151 6.62156 18.6211 6.87444 18.8766 7.07L19.0049 7.16334C19.2668 7.35969 19.5722 7.48982 19.8952 7.54263C20.2182 7.59545 20.5492 7.56939 20.8599 7.46667L21.2566 7.33834C21.5927 7.22693 21.9477 7.18436 22.3006 7.21315C22.6535 7.24194 22.997 7.34151 23.3105 7.50592C23.6241 7.67032 23.9014 7.8962 24.1258 8.17008C24.3501 8.44395 24.5171 8.76022 24.6166 9.1L25.5382 12.04C25.7515 12.7195 25.6932 13.4551 25.3756 14.0925C25.058 14.7299 24.5058 15.2194 23.8349 15.4583L23.6016 15.54C23.2584 15.6524 22.9481 15.8473 22.6978 16.1077C22.4476 16.3681 22.2652 16.6859 22.1666 17.0333C22.0737 17.3563 22.0517 17.6955 22.102 18.0277C22.1524 18.3599 22.2739 18.6774 22.4583 18.9583L22.7616 19.4017C23.1638 19.9855 23.3275 20.7011 23.2191 21.4018C23.1106 22.1025 22.7382 22.7351 22.1783 23.17L19.8333 24.9783C19.5499 25.195 19.2253 25.3514 18.8793 25.4378C18.5333 25.5243 18.1732 25.539 17.8213 25.4811C17.4694 25.4232 17.133 25.2938 16.833 25.101C16.5329 24.9082 16.2755 24.656 16.0766 24.36L15.9366 24.1617C15.7455 23.8745 15.4848 23.6404 15.1788 23.4813C14.8727 23.3222 14.5314 23.2432 14.1866 23.2517C13.8576 23.2602 13.5351 23.3459 13.2453 23.502C12.9555 23.658 12.7065 23.88 12.5183 24.15L12.2499 24.535C12.0509 24.8331 11.793 25.0873 11.492 25.2819C11.1911 25.4766 10.8534 25.6075 10.4999 25.6667C10.3486 25.6815 10.1962 25.6815 10.0449 25.6667ZM5.13325 13.5567C5.79206 13.7916 6.38651 14.1779 6.86878 14.6845C7.35105 15.1911 7.70766 15.8038 7.90992 16.4733V16.6133C8.16184 17.3094 8.24456 18.0554 8.15125 18.7898C8.05793 19.5241 7.79126 20.2257 7.37325 20.8367C7.29947 20.9182 7.25861 21.0242 7.25861 21.1342C7.25861 21.2441 7.29947 21.3502 7.37325 21.4317L9.88159 23.3333C9.91431 23.359 9.95216 23.3774 9.99258 23.3873C10.033 23.3972 10.0751 23.3983 10.116 23.3905C10.1569 23.3828 10.1956 23.3664 10.2296 23.3425C10.2637 23.3185 10.2922 23.2876 10.3133 23.2517L10.5816 22.8667C10.9863 22.2819 11.5268 21.804 12.1567 21.4739C12.7866 21.1438 13.4871 20.9713 14.1983 20.9713C14.9094 20.9713 15.61 21.1438 16.2399 21.4739C16.8698 21.804 17.4102 22.2819 17.8149 22.8667L17.9549 23.0767C18.0051 23.1478 18.0799 23.1977 18.1649 23.2167C18.2039 23.2224 18.2436 23.2202 18.2817 23.2102C18.3198 23.2002 18.3555 23.1825 18.3866 23.1583L20.7899 21.3383C20.874 21.2716 20.9294 21.1751 20.9446 21.0688C20.9598 20.9624 20.9337 20.8543 20.8716 20.7667L20.5683 20.3233C20.173 19.747 19.9123 19.0893 19.8052 18.3987C19.6982 17.7081 19.7477 17.0023 19.9499 16.3333C20.155 15.6303 20.5258 14.9867 21.0314 14.4568C21.5369 13.9269 22.1623 13.5262 22.8549 13.2883L23.0883 13.2067C23.1855 13.1677 23.2634 13.0919 23.3049 12.9957C23.3464 12.8995 23.3482 12.7908 23.3099 12.6933L22.3999 9.78834C22.3781 9.73751 22.3461 9.69165 22.306 9.65354C22.2659 9.61544 22.2185 9.58588 22.1666 9.56667C22.1322 9.54925 22.0943 9.54017 22.0558 9.54017C22.0172 9.54017 21.9793 9.54925 21.9449 9.56667L21.5483 9.695C20.8772 9.91646 20.1625 9.97164 19.4654 9.85581C18.7684 9.73997 18.1099 9.45658 17.5466 9.03L17.4999 8.925C16.9594 8.51564 16.5211 7.98655 16.2195 7.37927C15.9179 6.77199 15.7611 6.10306 15.7616 5.425V5.06334C15.7637 4.95089 15.7218 4.84205 15.6449 4.76C15.5778 4.69934 15.4904 4.66604 15.3999 4.66667H12.4366C12.3891 4.66964 12.3426 4.68196 12.2998 4.70293C12.2571 4.72391 12.2189 4.75312 12.1874 4.78889C12.156 4.82466 12.132 4.86629 12.1166 4.91139C12.1013 4.95648 12.0951 5.00415 12.0983 5.05167V5.34334C12.0983 6.03988 11.9385 6.72714 11.631 7.35216C11.3236 7.97718 10.8767 8.52326 10.3249 8.94834L10.1733 9.065C9.57794 9.51826 8.88027 9.81812 8.14173 9.93816C7.4032 10.0582 6.64647 9.99472 5.93825 9.75333C5.88526 9.73555 5.82791 9.73555 5.77492 9.75333C5.70908 9.79333 5.65949 9.85532 5.63492 9.92834L4.66659 12.9733C4.63283 13.077 4.64074 13.1898 4.68864 13.2878C4.73654 13.3858 4.82068 13.4613 4.92325 13.4983L5.13325 13.5567Z" fill="#1A1A1A"/>
<path d="M14.0001 18.0833C13.1925 18.0833 12.403 17.8438 11.7315 17.3952C11.06 16.9465 10.5366 16.3088 10.2276 15.5626C9.91852 14.8165 9.83765 13.9955 9.99521 13.2034C10.1528 12.4113 10.5417 11.6837 11.1127 11.1126C11.6838 10.5416 12.4114 10.1527 13.2035 9.99513C13.9956 9.83757 14.8166 9.91843 15.5627 10.2275C16.3088 10.5365 16.9466 11.0599 17.3953 11.7314C17.8439 12.4029 18.0834 13.1924 18.0834 14C18.0834 15.083 17.6532 16.1216 16.8874 16.8874C16.1217 17.6531 15.0831 18.0833 14.0001 18.0833ZM14.0001 12.25C13.654 12.25 13.3156 12.3526 13.0278 12.5449C12.7401 12.7372 12.5157 13.0105 12.3833 13.3303C12.2508 13.6501 12.2162 14.0019 12.2837 14.3414C12.3512 14.6809 12.5179 14.9927 12.7626 15.2374C13.0074 15.4822 13.3192 15.6488 13.6587 15.7164C13.9981 15.7839 14.35 15.7492 14.6698 15.6168C14.9896 15.4843 15.2629 15.26 15.4552 14.9722C15.6474 14.6845 15.7501 14.3461 15.7501 14C15.7501 13.5359 15.5657 13.0908 15.2375 12.7626C14.9093 12.4344 14.4642 12.25 14.0001 12.25Z" fill="#1A1A1A"/>
</svg>
