<svg width="24" height="24" viewBox="0 0 24 24" fill="none" xmlns="http://www.w3.org/2000/svg">
<path d="M21.6601 10.37C21.6937 10.3109 21.7173 10.2467 21.7301 10.18L22.4801 6.18C22.5278 5.91478 22.4682 5.64146 22.3145 5.42017C22.1607 5.19888 21.9253 5.04774 21.6601 5C21.3949 4.95226 21.1215 5.01183 20.9003 5.16561C20.679 5.31939 20.5278 5.55478 20.4801 5.82L20.1101 7.82C19.2777 6.29992 18.0337 5.04521 16.5209 4.19978C15.008 3.35436 13.2875 2.95244 11.5566 3.04013C9.82579 3.12782 8.1547 3.70157 6.73502 4.69557C5.31535 5.68957 4.20457 7.06357 3.53008 8.66C3.43114 8.90537 3.43347 9.17995 3.53655 9.42361C3.63964 9.66726 3.83508 9.86014 4.08008 9.96C4.20213 10.0105 4.33299 10.0364 4.4651 10.0361C4.5972 10.0357 4.72793 10.0092 4.84974 9.95809C4.97154 9.90696 5.08201 9.83219 5.17475 9.73811C5.26749 9.64404 5.34068 9.53252 5.39008 9.41C5.92861 8.0868 6.85484 6.95747 8.04705 6.1704C9.23927 5.38332 10.6417 4.97532 12.0701 5C13.3334 4.99411 14.5758 5.3221 15.6716 5.95076C16.7673 6.57943 17.6776 7.48645 18.3101 8.58L16.6601 8.31C16.5288 8.28899 16.3946 8.29405 16.2652 8.32489C16.1358 8.35573 16.0138 8.41175 15.9061 8.48976C15.7984 8.56776 15.7071 8.66621 15.6374 8.7795C15.5678 8.89278 15.5211 9.01868 15.5001 9.15C15.4791 9.28132 15.4841 9.4155 15.515 9.54486C15.5458 9.67423 15.6018 9.79625 15.6798 9.90397C15.7578 10.0117 15.8563 10.103 15.9696 10.1726C16.0829 10.2423 16.2088 10.289 16.3401 10.31L20.5901 11.02H20.7501C20.8662 11.0214 20.9815 11.001 21.0901 10.96C21.1267 10.9461 21.1606 10.9258 21.1901 10.9C21.2618 10.8733 21.3292 10.8363 21.3901 10.79L21.4701 10.69C21.5219 10.6414 21.5688 10.5878 21.6101 10.53C21.6344 10.4794 21.6512 10.4255 21.6601 10.37Z" fill="#319DA0"/>
<path d="M19.8799 14.07C19.7572 14.0197 19.6258 13.9944 19.4932 13.9954C19.3607 13.9964 19.2296 14.0237 19.1077 14.0758C18.9858 14.1279 18.8755 14.2038 18.7832 14.2989C18.6908 14.394 18.6184 14.5066 18.5699 14.63C18.0276 15.9393 17.1049 17.0557 15.9211 17.8348C14.7373 18.6139 13.3469 19.0198 11.9299 19C10.6666 19.0059 9.42421 18.6779 8.32844 18.0492C7.23267 17.4206 6.32244 16.5136 5.68993 15.42L7.33993 15.69H7.49993C7.76514 15.7112 8.02792 15.6262 8.23046 15.4537C8.433 15.2811 8.55871 15.0352 8.57993 14.77C8.60114 14.5048 8.51613 14.242 8.3436 14.0395C8.17107 13.8369 7.92514 13.7112 7.65992 13.69L3.40993 13C3.30084 12.9799 3.18901 12.9799 3.07993 13H2.99993C2.88675 13.0301 2.77884 13.0773 2.67993 13.14C2.6125 13.1921 2.55201 13.2526 2.49993 13.32L2.40993 13.42C2.37902 13.4803 2.35551 13.5441 2.33993 13.61C2.30488 13.6611 2.28103 13.719 2.26993 13.78L1.51993 17.78C1.48781 17.9129 1.48328 18.051 1.50664 18.1857C1.52999 18.3204 1.58072 18.4489 1.6557 18.5633C1.73068 18.6776 1.8283 18.7754 1.94255 18.8505C2.0568 18.9256 2.18523 18.9765 2.31993 19H2.49993C2.73671 19.0039 2.96719 18.9236 3.15031 18.7734C3.33344 18.6232 3.45733 18.413 3.49993 18.18L3.86993 16.18C4.70144 17.7004 5.94463 18.9558 7.45693 19.802C8.96923 20.6482 10.6894 21.0511 12.4202 20.9645C14.151 20.8779 15.8224 20.3052 17.2426 19.3121C18.6628 18.3191 19.7744 16.9459 20.4499 15.35C20.5416 15.1045 20.5332 14.8329 20.4266 14.5935C20.32 14.3541 20.1237 14.1661 19.8799 14.07Z" fill="#319DA0"/>
</svg>
